<svg width="247" height="55" viewBox="0 0 247 55" fill="none" xmlns="http://www.w3.org/2000/svg">
<rect x="0.5" y="0.5" width="246" height="54" rx="11.5" fill="#00D4AA" fill-opacity="0.2"/>
<rect x="0.5" y="0.5" width="246" height="54" rx="11.5" stroke="url(#paint0_linear_117835_81534)"/>
<path d="M29.27 32V21.5H33.575C34.295 21.5 34.905 21.615 35.405 21.845C35.905 22.075 36.285 22.395 36.545 22.805C36.805 23.205 36.935 23.67 36.935 24.2C36.935 24.73 36.82 25.175 36.59 25.535C36.36 25.895 36.055 26.175 35.675 26.375C35.295 26.565 34.885 26.675 34.445 26.705L34.685 26.54C35.165 26.56 35.59 26.69 35.96 26.93C36.34 27.16 36.635 27.47 36.845 27.86C37.065 28.25 37.175 28.675 37.175 29.135C37.175 29.695 37.04 30.19 36.77 30.62C36.5 31.05 36.105 31.39 35.585 31.64C35.075 31.88 34.45 32 33.71 32H29.27ZM31.295 30.35H33.395C33.945 30.35 34.37 30.225 34.67 29.975C34.97 29.725 35.12 29.365 35.12 28.895C35.12 28.425 34.965 28.06 34.655 27.8C34.345 27.53 33.915 27.395 33.365 27.395H31.295V30.35ZM31.295 25.88H33.245C33.775 25.88 34.175 25.76 34.445 25.52C34.725 25.28 34.865 24.94 34.865 24.5C34.865 24.07 34.725 23.735 34.445 23.495C34.175 23.245 33.77 23.12 33.23 23.12H31.295V25.88ZM42.0604 32.18C41.3404 32.18 40.6904 32.015 40.1104 31.685C39.5404 31.345 39.0854 30.88 38.7454 30.29C38.4154 29.69 38.2504 29.005 38.2504 28.235C38.2504 27.455 38.4154 26.77 38.7454 26.18C39.0854 25.58 39.5454 25.115 40.1254 24.785C40.7054 24.445 41.3554 24.275 42.0754 24.275C42.8054 24.275 43.4554 24.445 44.0254 24.785C44.6054 25.115 45.0604 25.58 45.3904 26.18C45.7304 26.77 45.9004 27.455 45.9004 28.235C45.9004 29.005 45.7304 29.69 45.3904 30.29C45.0604 30.88 44.6054 31.345 44.0254 31.685C43.4454 32.015 42.7904 32.18 42.0604 32.18ZM42.0604 30.425C42.4004 30.425 42.7004 30.345 42.9604 30.185C43.2304 30.025 43.4404 29.78 43.5904 29.45C43.7504 29.12 43.8304 28.715 43.8304 28.235C43.8304 27.745 43.7504 27.34 43.5904 27.02C43.4404 26.69 43.2304 26.445 42.9604 26.285C42.7004 26.115 42.4054 26.03 42.0754 26.03C41.7554 26.03 41.4604 26.115 41.1904 26.285C40.9204 26.445 40.7054 26.69 40.5454 27.02C40.3854 27.34 40.3054 27.745 40.3054 28.235C40.3054 28.715 40.3854 29.12 40.5454 29.45C40.7054 29.78 40.9154 30.025 41.1754 30.185C41.4454 30.345 41.7404 30.425 42.0604 30.425ZM50.9157 32.18C50.1957 32.18 49.5457 32.015 48.9657 31.685C48.3957 31.345 47.9407 30.88 47.6007 30.29C47.2707 29.69 47.1057 29.005 47.1057 28.235C47.1057 27.455 47.2707 26.77 47.6007 26.18C47.9407 25.58 48.4007 25.115 48.9807 24.785C49.5607 24.445 50.2107 24.275 50.9307 24.275C51.6607 24.275 52.3107 24.445 52.8807 24.785C53.4607 25.115 53.9157 25.58 54.2457 26.18C54.5857 26.77 54.7557 27.455 54.7557 28.235C54.7557 29.005 54.5857 29.69 54.2457 30.29C53.9157 30.88 53.4607 31.345 52.8807 31.685C52.3007 32.015 51.6457 32.18 50.9157 32.18ZM50.9157 30.425C51.2557 30.425 51.5557 30.345 51.8157 30.185C52.0857 30.025 52.2957 29.78 52.4457 29.45C52.6057 29.12 52.6857 28.715 52.6857 28.235C52.6857 27.745 52.6057 27.34 52.4457 27.02C52.2957 26.69 52.0857 26.445 51.8157 26.285C51.5557 26.115 51.2607 26.03 50.9307 26.03C50.6107 26.03 50.3157 26.115 50.0457 26.285C49.7757 26.445 49.5607 26.69 49.4007 27.02C49.2407 27.34 49.1607 27.745 49.1607 28.235C49.1607 28.715 49.2407 29.12 49.4007 29.45C49.5607 29.78 49.7707 30.025 50.0307 30.185C50.3007 30.345 50.5957 30.425 50.9157 30.425ZM61.1509 32L57.9259 27.875L60.8059 24.455H63.2059L59.4709 28.715V27.11L63.6709 32H61.1509ZM56.2009 32V21.2H58.2259V32H56.2009ZM67.8481 32V21.5H74.6731V23.135H69.8731V25.94H73.7281V27.53H69.8731V32H67.8481ZM75.838 32V24.455H77.638L77.818 25.85C78.008 25.52 78.238 25.24 78.508 25.01C78.778 24.78 79.093 24.6 79.453 24.47C79.813 24.34 80.203 24.275 80.623 24.275V26.42H79.948C79.648 26.42 79.368 26.455 79.108 26.525C78.858 26.585 78.638 26.695 78.448 26.855C78.258 27.015 78.113 27.23 78.013 27.5C77.913 27.77 77.863 28.11 77.863 28.52V32H75.838ZM85.1739 32.18C84.4139 32.18 83.7389 32.02 83.1489 31.7C82.5689 31.37 82.1139 30.915 81.7839 30.335C81.4639 29.745 81.3039 29.065 81.3039 28.295C81.3039 27.515 81.4639 26.825 81.7839 26.225C82.1039 25.615 82.5539 25.14 83.1339 24.8C83.7239 24.45 84.4039 24.275 85.1739 24.275C85.9239 24.275 86.5789 24.44 87.1389 24.77C87.6989 25.09 88.1339 25.535 88.4439 26.105C88.7639 26.665 88.9239 27.3 88.9239 28.01C88.9239 28.11 88.9189 28.22 88.9089 28.34C88.9089 28.46 88.8989 28.59 88.8789 28.73H82.7439V27.485H86.8689C86.8389 27.005 86.6639 26.625 86.3439 26.345C86.0339 26.055 85.6439 25.91 85.1739 25.91C84.8339 25.91 84.5189 25.99 84.2289 26.15C83.9389 26.31 83.7089 26.55 83.5389 26.87C83.3789 27.18 83.2989 27.58 83.2989 28.07V28.505C83.2989 28.915 83.3739 29.275 83.5239 29.585C83.6839 29.885 83.9039 30.12 84.1839 30.29C84.4639 30.45 84.7889 30.53 85.1589 30.53C85.5289 30.53 85.8339 30.45 86.0739 30.29C86.3239 30.13 86.5139 29.92 86.6439 29.66H88.6989C88.5589 30.14 88.3239 30.57 87.9939 30.95C87.6639 31.33 87.2589 31.63 86.7789 31.85C86.2989 32.07 85.7639 32.18 85.1739 32.18ZM93.8973 32.18C93.1373 32.18 92.4623 32.02 91.8723 31.7C91.2923 31.37 90.8373 30.915 90.5073 30.335C90.1873 29.745 90.0273 29.065 90.0273 28.295C90.0273 27.515 90.1873 26.825 90.5073 26.225C90.8273 25.615 91.2773 25.14 91.8573 24.8C92.4473 24.45 93.1273 24.275 93.8973 24.275C94.6473 24.275 95.3023 24.44 95.8623 24.77C96.4223 25.09 96.8573 25.535 97.1673 26.105C97.4873 26.665 97.6473 27.3 97.6473 28.01C97.6473 28.11 97.6423 28.22 97.6323 28.34C97.6323 28.46 97.6223 28.59 97.6023 28.73H91.4673V27.485H95.5923C95.5623 27.005 95.3873 26.625 95.0673 26.345C94.7573 26.055 94.3673 25.91 93.8973 25.91C93.5573 25.91 93.2423 25.99 92.9523 26.15C92.6623 26.31 92.4323 26.55 92.2623 26.87C92.1023 27.18 92.0223 27.58 92.0223 28.07V28.505C92.0223 28.915 92.0973 29.275 92.2473 29.585C92.4073 29.885 92.6273 30.12 92.9073 30.29C93.1873 30.45 93.5123 30.53 93.8823 30.53C94.2523 30.53 94.5573 30.45 94.7973 30.29C95.0473 30.13 95.2373 29.92 95.3673 29.66H97.4223C97.2823 30.14 97.0473 30.57 96.7173 30.95C96.3873 31.33 95.9823 31.63 95.5023 31.85C95.0223 32.07 94.4873 32.18 93.8973 32.18ZM106.976 32.18C105.936 32.18 105.036 31.955 104.276 31.505C103.516 31.045 102.931 30.41 102.521 29.6C102.121 28.78 101.921 27.835 101.921 26.765C101.921 25.695 102.121 24.75 102.521 23.93C102.931 23.11 103.516 22.47 104.276 22.01C105.036 21.55 105.936 21.32 106.976 21.32C108.256 21.32 109.301 21.635 110.111 22.265C110.921 22.895 111.426 23.785 111.626 24.935H109.406C109.276 24.375 109.006 23.94 108.596 23.63C108.186 23.31 107.641 23.15 106.961 23.15C106.341 23.15 105.806 23.3 105.356 23.6C104.916 23.89 104.576 24.305 104.336 24.845C104.096 25.375 103.976 26.015 103.976 26.765C103.976 27.505 104.096 28.145 104.336 28.685C104.576 29.225 104.916 29.64 105.356 29.93C105.806 30.22 106.341 30.365 106.961 30.365C107.641 30.365 108.181 30.22 108.581 29.93C108.991 29.63 109.266 29.215 109.406 28.685H111.626C111.426 29.775 110.921 30.63 110.111 31.25C109.301 31.87 108.256 32.18 106.976 32.18ZM116.565 32.18C115.845 32.18 115.195 32.015 114.615 31.685C114.045 31.345 113.59 30.88 113.25 30.29C112.92 29.69 112.755 29.005 112.755 28.235C112.755 27.455 112.92 26.77 113.25 26.18C113.59 25.58 114.05 25.115 114.63 24.785C115.21 24.445 115.86 24.275 116.58 24.275C117.31 24.275 117.96 24.445 118.53 24.785C119.11 25.115 119.565 25.58 119.895 26.18C120.235 26.77 120.405 27.455 120.405 28.235C120.405 29.005 120.235 29.69 119.895 30.29C119.565 30.88 119.11 31.345 118.53 31.685C117.95 32.015 117.295 32.18 116.565 32.18ZM116.565 30.425C116.905 30.425 117.205 30.345 117.465 30.185C117.735 30.025 117.945 29.78 118.095 29.45C118.255 29.12 118.335 28.715 118.335 28.235C118.335 27.745 118.255 27.34 118.095 27.02C117.945 26.69 117.735 26.445 117.465 26.285C117.205 26.115 116.91 26.03 116.58 26.03C116.26 26.03 115.965 26.115 115.695 26.285C115.425 26.445 115.21 26.69 115.05 27.02C114.89 27.34 114.81 27.745 114.81 28.235C114.81 28.715 114.89 29.12 115.05 29.45C115.21 29.78 115.42 30.025 115.68 30.185C115.95 30.345 116.245 30.425 116.565 30.425ZM121.851 32V24.455H123.636L123.786 25.685C124.016 25.265 124.341 24.925 124.761 24.665C125.191 24.405 125.701 24.275 126.291 24.275C126.921 24.275 127.451 24.405 127.881 24.665C128.311 24.925 128.636 25.305 128.856 25.805C129.086 26.305 129.201 26.92 129.201 27.65V32H127.191V27.845C127.191 27.245 127.061 26.785 126.801 26.465C126.551 26.145 126.161 25.985 125.631 25.985C125.291 25.985 124.986 26.065 124.716 26.225C124.456 26.385 124.251 26.615 124.101 26.915C123.951 27.205 123.876 27.565 123.876 27.995V32H121.851ZM133.884 32.18C133.194 32.18 132.594 32.07 132.084 31.85C131.574 31.63 131.174 31.33 130.884 30.95C130.594 30.56 130.429 30.115 130.389 29.615H132.399C132.449 29.805 132.534 29.98 132.654 30.14C132.774 30.29 132.934 30.41 133.134 30.5C133.334 30.59 133.574 30.635 133.854 30.635C134.124 30.635 134.344 30.6 134.514 30.53C134.684 30.45 134.809 30.345 134.889 30.215C134.979 30.085 135.024 29.95 135.024 29.81C135.024 29.6 134.964 29.44 134.844 29.33C134.724 29.22 134.544 29.13 134.304 29.06C134.074 28.98 133.799 28.91 133.479 28.85C133.119 28.77 132.769 28.68 132.429 28.58C132.089 28.48 131.779 28.35 131.499 28.19C131.229 28.03 131.014 27.825 130.854 27.575C130.694 27.315 130.614 27.005 130.614 26.645C130.614 26.195 130.734 25.795 130.974 25.445C131.214 25.085 131.564 24.8 132.024 24.59C132.484 24.38 133.034 24.275 133.674 24.275C134.584 24.275 135.304 24.48 135.834 24.89C136.374 25.3 136.689 25.865 136.779 26.585H134.874C134.824 26.345 134.694 26.16 134.484 26.03C134.274 25.9 134.004 25.835 133.674 25.835C133.314 25.835 133.039 25.9 132.849 26.03C132.669 26.16 132.579 26.325 132.579 26.525C132.579 26.665 132.639 26.79 132.759 26.9C132.879 27.01 133.054 27.105 133.284 27.185C133.514 27.265 133.794 27.34 134.124 27.41C134.704 27.53 135.209 27.665 135.639 27.815C136.079 27.965 136.424 28.185 136.674 28.475C136.934 28.755 137.059 29.165 137.049 29.705C137.059 30.185 136.934 30.615 136.674 30.995C136.414 31.365 136.044 31.655 135.564 31.865C135.094 32.075 134.534 32.18 133.884 32.18ZM141.282 32.18C140.662 32.18 140.132 32.055 139.692 31.805C139.262 31.545 138.932 31.165 138.702 30.665C138.482 30.165 138.372 29.55 138.372 28.82V24.455H140.382V28.625C140.382 29.225 140.507 29.685 140.757 30.005C141.017 30.315 141.412 30.47 141.942 30.47C142.282 30.47 142.582 30.395 142.842 30.245C143.112 30.085 143.322 29.86 143.472 29.57C143.622 29.27 143.697 28.905 143.697 28.475V24.455H145.722V32H143.952L143.787 30.77C143.567 31.2 143.242 31.545 142.812 31.805C142.382 32.055 141.872 32.18 141.282 32.18ZM147.406 32V21.2H149.431V32H147.406ZM154.51 32C153.98 32 153.515 31.92 153.115 31.76C152.725 31.59 152.42 31.315 152.2 30.935C151.98 30.545 151.87 30.015 151.87 29.345V26.15H150.58V24.455H151.87L152.095 22.4H153.895V24.455H155.89V26.15H153.895V29.375C153.895 29.715 153.97 29.95 154.12 30.08C154.27 30.21 154.525 30.275 154.885 30.275H155.86V32H154.51ZM159.829 32.18C159.199 32.18 158.679 32.08 158.269 31.88C157.859 31.67 157.554 31.395 157.354 31.055C157.154 30.705 157.054 30.32 157.054 29.9C157.054 29.44 157.174 29.035 157.414 28.685C157.654 28.335 158.009 28.065 158.479 27.875C158.959 27.675 159.559 27.575 160.279 27.575H162.154C162.154 27.195 162.104 26.885 162.004 26.645C161.904 26.405 161.749 26.225 161.539 26.105C161.329 25.985 161.049 25.925 160.699 25.925C160.319 25.925 159.994 26.01 159.724 26.18C159.464 26.34 159.304 26.59 159.244 26.93H157.279C157.329 26.39 157.504 25.925 157.804 25.535C158.114 25.135 158.519 24.825 159.019 24.605C159.519 24.385 160.084 24.275 160.714 24.275C161.424 24.275 162.039 24.395 162.559 24.635C163.079 24.875 163.479 25.22 163.759 25.67C164.039 26.12 164.179 26.67 164.179 27.32V32H162.469L162.244 30.845C162.134 31.045 162.004 31.225 161.854 31.385C161.704 31.545 161.529 31.685 161.329 31.805C161.129 31.925 160.904 32.015 160.654 32.075C160.404 32.145 160.129 32.18 159.829 32.18ZM160.309 30.62C160.569 30.62 160.799 30.575 160.999 30.485C161.209 30.385 161.389 30.255 161.539 30.095C161.689 29.925 161.804 29.735 161.884 29.525C161.974 29.305 162.034 29.07 162.064 28.82V28.805H160.519C160.209 28.805 159.954 28.845 159.754 28.925C159.564 29.005 159.424 29.115 159.334 29.255C159.244 29.385 159.199 29.545 159.199 29.735C159.199 29.925 159.244 30.085 159.334 30.215C159.424 30.345 159.554 30.445 159.724 30.515C159.894 30.585 160.089 30.62 160.309 30.62ZM169.085 32C168.555 32 168.09 31.92 167.69 31.76C167.3 31.59 166.995 31.315 166.775 30.935C166.555 30.545 166.445 30.015 166.445 29.345V26.15H165.155V24.455H166.445L166.67 22.4H168.47V24.455H170.465V26.15H168.47V29.375C168.47 29.715 168.545 29.95 168.695 30.08C168.845 30.21 169.1 30.275 169.46 30.275H170.435V32H169.085ZM171.9 32V24.455H173.925V32H171.9ZM172.92 23.42C172.55 23.42 172.25 23.31 172.02 23.09C171.79 22.87 171.675 22.595 171.675 22.265C171.675 21.935 171.79 21.665 172.02 21.455C172.25 21.235 172.55 21.125 172.92 21.125C173.29 21.125 173.59 21.235 173.82 21.455C174.06 21.665 174.18 21.935 174.18 22.265C174.18 22.595 174.06 22.87 173.82 23.09C173.59 23.31 173.29 23.42 172.92 23.42ZM179.227 32.18C178.507 32.18 177.857 32.015 177.277 31.685C176.707 31.345 176.252 30.88 175.912 30.29C175.582 29.69 175.417 29.005 175.417 28.235C175.417 27.455 175.582 26.77 175.912 26.18C176.252 25.58 176.712 25.115 177.292 24.785C177.872 24.445 178.522 24.275 179.242 24.275C179.972 24.275 180.622 24.445 181.192 24.785C181.772 25.115 182.227 25.58 182.557 26.18C182.897 26.77 183.067 27.455 183.067 28.235C183.067 29.005 182.897 29.69 182.557 30.29C182.227 30.88 181.772 31.345 181.192 31.685C180.612 32.015 179.957 32.18 179.227 32.18ZM179.227 30.425C179.567 30.425 179.867 30.345 180.127 30.185C180.397 30.025 180.607 29.78 180.757 29.45C180.917 29.12 180.997 28.715 180.997 28.235C180.997 27.745 180.917 27.34 180.757 27.02C180.607 26.69 180.397 26.445 180.127 26.285C179.867 26.115 179.572 26.03 179.242 26.03C178.922 26.03 178.627 26.115 178.357 26.285C178.087 26.445 177.872 26.69 177.712 27.02C177.552 27.34 177.472 27.745 177.472 28.235C177.472 28.715 177.552 29.12 177.712 29.45C177.872 29.78 178.082 30.025 178.342 30.185C178.612 30.345 178.907 30.425 179.227 30.425ZM184.512 32V24.455H186.297L186.447 25.685C186.677 25.265 187.002 24.925 187.422 24.665C187.852 24.405 188.362 24.275 188.952 24.275C189.582 24.275 190.112 24.405 190.542 24.665C190.972 24.925 191.297 25.305 191.517 25.805C191.747 26.305 191.862 26.92 191.862 27.65V32H189.852V27.845C189.852 27.245 189.722 26.785 189.462 26.465C189.212 26.145 188.822 25.985 188.292 25.985C187.952 25.985 187.647 26.065 187.377 26.225C187.117 26.385 186.912 26.615 186.762 26.915C186.612 27.205 186.537 27.565 186.537 27.995V32H184.512Z" fill="white"/>
<path d="M204.75 27.5H215.25M215.25 27.5L210 22.25M215.25 27.5L210 32.75" stroke="white" stroke-width="1.875" stroke-linecap="round"/>
<defs>
<linearGradient id="paint0_linear_117835_81534" x1="94.8239" y1="-4.45497" x2="91.5482" y2="55.7002" gradientUnits="userSpaceOnUse">
<stop stop-color="#C49337"/>
<stop offset="0.275" stop-color="#FCF7CD"/>
<stop offset="0.495" stop-color="#EDCD78"/>
<stop offset="0.63" stop-color="#A7602B"/>
<stop offset="0.825" stop-color="#FDF8D0"/>
<stop offset="1" stop-color="#BB9138"/>
</linearGradient>
</defs>
</svg>
