<svg width="64" height="44" viewBox="0 0 64 44" fill="none" xmlns="http://www.w3.org/2000/svg">
<g clip-path="url(#clip0_117835_82661)">
<path d="M45.7586 32.7873C45.7579 32.7889 45.7569 32.7908 45.7559 32.7929C45.7554 32.794 45.7548 32.7951 45.7542 32.7963C45.7539 32.7969 45.7535 32.7979 45.7534 32.7983C45.7533 32.7995 45.7858 32.8166 48.2228 34.0042C50.6931 35.2082 50.6926 35.2092 50.6921 35.2103C50.6919 35.2107 50.6913 35.2118 50.691 35.2125C50.6902 35.2141 50.6895 35.2157 50.6886 35.2174C50.6871 35.2207 50.6852 35.2244 50.6832 35.2284C50.6792 35.2364 50.6746 35.2456 50.6694 35.256C50.6589 35.2769 50.6457 35.3027 50.6299 35.333C50.5983 35.3937 50.5558 35.4727 50.5024 35.568C50.3956 35.7584 50.2437 36.0149 50.0444 36.3195C49.647 36.927 49.0531 37.7374 48.2384 38.6012C46.6353 40.3011 44.1309 42.2549 40.5696 43.2106L40.3993 43.2553C36.1319 44.3518 32.5846 43.6138 30.1073 42.5783C28.8785 42.0646 27.9136 41.4792 27.2435 41.0113C26.9074 40.7766 26.6421 40.5692 26.4514 40.4115C26.3559 40.3325 26.2787 40.2657 26.2203 40.2139C26.1911 40.1879 26.1666 40.1657 26.1468 40.1475C26.137 40.1383 26.1281 40.1302 26.1206 40.1233C26.1169 40.1198 26.1134 40.1165 26.1102 40.1135C26.1086 40.112 26.107 40.1104 26.1055 40.1091C26.1048 40.1084 26.1038 40.1074 26.1035 40.107C26.1034 40.1062 26.1126 40.0955 26.3386 39.8565L29.6477 36.3637C29.8763 36.122 29.8832 36.1137 29.883 36.1131C29.8827 36.1128 29.8817 36.112 29.8811 36.1114C29.88 36.1103 29.8788 36.1093 29.8778 36.1083C29.8757 36.1064 29.8739 36.1046 29.8723 36.1031C29.8692 36.1002 29.8672 36.0984 29.8661 36.0974C29.864 36.0954 29.8664 36.0978 29.8723 36.1031C29.8842 36.1136 29.9116 36.1373 29.9548 36.1731C30.0413 36.2446 30.1881 36.3606 30.3913 36.5025C30.7999 36.7878 31.4226 37.1682 32.229 37.5053C33.8222 38.1714 36.1367 38.6747 39.0335 37.9303L39.1455 37.9008C41.4869 37.2727 43.1461 35.9896 44.2401 34.8295C44.7956 34.2405 45.1933 33.6953 45.445 33.3104C45.5704 33.119 45.6576 32.9699 45.7087 32.879C45.734 32.8337 45.7503 32.8032 45.7575 32.7893C45.7611 32.7824 45.7626 32.7797 45.7617 32.7814C45.7613 32.7823 45.7602 32.7843 45.7586 32.7873Z" fill="url(#paint0_linear_117835_82661)"/>
<path fill-rule="evenodd" clip-rule="evenodd" d="M15.0385 0C24.4741 0 30.1358 6.84921 30.1358 14.9384C30.1358 23.0867 24.4741 29.9357 15.0385 29.9357C5.6616 29.9357 8.31659e-06 23.0866 0 14.9384C0 6.84922 5.66159 1.83612e-05 15.0385 0ZM15.0385 6.67208C10.3792 6.6721 7.78442 10.51 7.78442 14.9384C7.78443 19.4257 10.3792 23.2638 15.0385 23.2638C19.6974 23.2638 22.3513 19.4257 22.3513 14.9384C22.3513 10.51 19.6974 6.67208 15.0385 6.67208Z" fill="url(#paint1_linear_117835_82661)"/>
<path fill-rule="evenodd" clip-rule="evenodd" d="M48.9025 0C58.3385 1.91412e-05 64 6.84922 64 14.9384C64 23.0866 58.3385 29.9357 48.9025 29.9357C39.5256 29.9357 33.8643 23.0867 33.8643 14.9384C33.8643 6.84921 39.5256 0 48.9025 0ZM48.9025 6.67208C44.2435 6.67208 41.6487 10.51 41.6487 14.9384C41.6487 19.4257 44.2435 23.2638 48.9025 23.2638C53.5617 23.2638 56.2156 19.4257 56.2156 14.9384C56.2156 10.51 53.5617 6.6721 48.9025 6.67208Z" fill="url(#paint2_linear_117835_82661)"/>
</g>
<defs>
<linearGradient id="paint0_linear_117835_82661" x1="32.0005" y1="-2.62165e-05" x2="32.0005" y2="43.7984" gradientUnits="userSpaceOnUse">
<stop stop-color="#6EF195"/>
<stop offset="1" stop-color="#00E3FD"/>
</linearGradient>
<linearGradient id="paint1_linear_117835_82661" x1="32" y1="0" x2="32" y2="43.7984" gradientUnits="userSpaceOnUse">
<stop stop-color="#6EF195"/>
<stop offset="1" stop-color="#00E3FD"/>
</linearGradient>
<linearGradient id="paint2_linear_117835_82661" x1="32" y1="0" x2="32" y2="43.7984" gradientUnits="userSpaceOnUse">
<stop stop-color="#6EF195"/>
<stop offset="1" stop-color="#00E3FD"/>
</linearGradient>
<clipPath id="clip0_117835_82661">
<rect width="64" height="43.7984" fill="white"/>
</clipPath>
</defs>
</svg>
